<?xml version="1.0" standalone="no"?>
<!DOCTYPE svg PUBLIC "-//W3C//DTD SVG 20010904//EN"
 "http://www.w3.org/TR/2001/REC-SVG-20010904/DTD/svg10.dtd">
<svg version="1.0" xmlns="http://www.w3.org/2000/svg"
 width="227.000000pt" height="227.000000pt" viewBox="0 0 227.000000 227.000000"
 preserveAspectRatio="xMidYMid meet">
<metadata>
Created by potrace 1.14, written by Peter Selinger 2001-2017
</metadata>
<g transform="translate(0.000000,227.000000) scale(0.100000,-0.100000)"
fill="#000000" stroke="none">
<path d="M1099 2245 c-5 -13 -65 -55 -79 -55 -6 0 -10 -10 -8 -22 3 -18 20
-27 113 -55 61 -18 119 -35 130 -37 39 -8 50 -11 55 -16 3 -3 32 -18 65 -34
33 -15 78 -42 100 -59 74 -56 190 -181 243 -262 59 -88 212 -390 214 -421 2
-17 5 -19 25 -10 13 6 21 16 19 21 -1 6 2 26 9 45 17 49 12 175 -9 237 -60
179 -260 364 -556 516 -63 32 -135 72 -160 88 -51 32 -128 62 -140 54 -5 -3
-10 1 -12 7 -3 7 -6 9 -9 3z"/>
<path d="M740 2047 c0 -6 -3 -8 -6 -4 -4 3 -19 0 -34 -8 -15 -8 -30 -11 -34
-8 -3 4 -6 1 -6 -6 0 -7 -4 -10 -9 -6 -5 3 -12 1 -16 -5 -4 -6 -10 -8 -15 -5
-5 3 -11 1 -15 -5 -3 -5 -15 -10 -25 -10 -35 0 -49 -61 -17 -73 7 -2 26 -3 42
-2 167 13 259 17 305 15 30 -1 65 -3 78 -4 12 0 22 -3 22 -6 0 -3 8 -6 18 -7
32 -3 139 -41 200 -72 74 -37 180 -117 239 -179 75 -80 195 -262 209 -317 2
-5 14 -43 29 -84 14 -41 23 -81 21 -88 -3 -7 -1 -13 3 -13 5 0 8 -14 7 -31 -1
-16 1 -32 4 -34 8 -5 5 -174 -4 -225 -9 -49 -14 -75 -16 -77 -2 -2 -3 -6 -4
-10 -18 -81 -94 -225 -153 -290 -18 -20 -33 -38 -33 -41 0 -4 -21 -26 -47 -51
-27 -24 -41 -41 -33 -37 8 4 4 -2 -10 -13 -14 -11 -29 -21 -33 -21 -5 0 -6 -4
-2 -9 3 -6 -3 -14 -13 -20 -10 -5 -24 -21 -31 -35 -8 -14 -19 -22 -25 -19 -6
4 -4 -2 4 -12 14 -17 13 -18 -2 -13 -15 6 -34 -15 -30 -34 1 -4 -8 -10 -20
-13 -16 -6 -18 -9 -7 -16 11 -7 10 -9 -3 -9 -10 0 -18 -5 -18 -11 0 -5 6 -7
13 -4 6 4 1 -3 -13 -14 -18 -15 -21 -21 -9 -21 8 0 30 13 49 30 18 16 37 27
43 23 6 -3 7 -1 3 6 -4 6 -12 8 -18 5 -7 -4 -8 -2 -4 5 4 6 12 8 18 5 10 -6
208 191 208 207 0 5 6 8 13 7 6 -2 11 3 9 10 -1 8 1 11 6 8 12 -7 152 131 191
188 45 65 63 110 78 191 3 17 8 32 12 35 6 4 8 297 2 310 -2 3 -11 43 -22 90
-25 113 -27 118 -34 130 -3 5 -8 20 -10 32 -7 36 -112 240 -140 272 -14 16
-25 32 -25 36 0 15 -149 153 -205 190 -33 22 -64 43 -70 48 -18 13 -164 72
-195 78 -8 1 -42 9 -75 17 -33 8 -67 15 -75 15 -8 0 -31 4 -50 7 -62 11 -220
12 -220 2z m687 -1762 c0 -8 -4 -12 -9 -9 -5 3 -6 10 -3 15 9 13 12 11 12 -6z"/>
<path d="M345 1929 c-5 -8 -65 -22 -82 -20 -7 1 -13 -3 -13 -10 0 -6 -7 -9
-15 -5 -31 12 -54 -41 -34 -79 3 -5 5 -25 5 -42 -1 -28 2 -32 19 -27 11 4 22
10 25 14 3 3 21 15 40 26 19 10 37 21 40 25 3 3 21 15 41 27 54 32 62 45 49
74 -9 18 -20 24 -41 24 -17 0 -32 -3 -34 -7z"/>
<path d="M1882 1914 c3 -10 35 -65 72 -121 55 -84 70 -100 81 -90 7 6 12 14
10 17 -2 3 2 42 9 87 14 95 15 94 -89 107 -16 2 -43 7 -59 11 -25 7 -28 6 -24
-11z"/>
<path d="M740 1812 c0 -4 -8 -8 -17 -9 -10 -1 -31 -5 -48 -8 -16 -4 -40 -7
-52 -8 -13 -1 -23 -4 -23 -7 0 -3 -9 -6 -21 -7 -11 -1 -39 -11 -63 -22 -23
-12 -48 -21 -54 -21 -7 0 -12 -4 -12 -9 0 -5 -14 -12 -31 -16 -17 -4 -33 -13
-35 -20 -3 -8 -14 -12 -25 -10 -11 2 -23 -3 -26 -11 -3 -8 -12 -13 -19 -10 -8
3 -14 1 -14 -5 0 -6 -4 -7 -10 -4 -5 3 -10 1 -10 -6 0 -7 -3 -10 -6 -6 -3 3
-16 -3 -27 -14 -14 -12 -18 -23 -11 -27 5 -4 10 -16 10 -27 2 -45 4 -56 13
-51 5 4 12 0 14 -6 3 -8 6 -6 6 5 1 10 5 16 10 13 8 -6 132 40 141 53 3 3 16
8 30 10 14 1 27 6 30 11 3 4 41 20 85 35 44 15 84 30 90 33 9 5 35 10 93 15
12 1 22 5 22 8 0 6 142 3 181 -4 47 -9 123 -38 184 -70 59 -31 225 -182 225
-205 0 -6 6 -17 13 -24 27 -30 86 -160 96 -210 0 -5 1 -9 2 -10 14 -47 19
-220 6 -235 -6 -9 -6 -13 2 -13 9 0 9 -6 0 -22 -7 -13 -13 -35 -14 -50 -3 -34
-60 -148 -91 -181 -13 -15 -24 -32 -24 -38 0 -7 -2 -10 -5 -7 -9 9 -147 -130
-140 -141 3 -7 0 -8 -9 -5 -19 7 -21 -7 -3 -26 10 -12 9 -12 -3 -3 -10 8 -21
9 -30 3 -8 -6 -11 -10 -6 -10 5 0 -1 -9 -14 -20 -21 -18 -21 -20 -4 -20 15 0
16 -2 5 -9 -7 -5 -11 -14 -7 -20 5 -7 1 -9 -9 -5 -10 4 -15 2 -13 -7 2 -8 -2
-13 -8 -12 -7 1 -9 -8 -6 -22 2 -14 12 -25 21 -26 11 0 12 -2 3 -6 -7 -3 -20
1 -29 9 -12 9 -15 9 -9 0 4 -7 2 -12 -5 -12 -7 0 -6 -8 5 -25 9 -14 13 -25 9
-25 -5 0 -1 -5 7 -11 13 -9 13 -10 0 -6 -8 2 -15 10 -15 17 0 7 -8 14 -18 16
-17 2 -17 1 -3 -21 19 -30 21 -46 3 -20 -10 12 -16 14 -21 7 -4 -7 -3 -12 2
-12 6 0 13 -7 16 -16 5 -14 4 -15 -9 -4 -18 15 -19 15 -33 -26 -8 -26 -8 -32
4 -30 8 1 20 8 27 16 10 10 9 12 -5 7 -12 -4 -15 -2 -11 9 4 10 9 12 18 4 9
-8 17 -4 29 15 9 14 20 25 24 25 15 0 36 -19 29 -27 -5 -4 -12 -1 -17 7 -8 12
-14 10 -34 -15 -13 -16 -22 -32 -19 -35 2 -3 13 5 23 17 17 21 30 21 30 0 0
-6 -3 -8 -6 -4 -4 3 -13 -1 -21 -9 -9 -8 -21 -13 -29 -10 -8 3 -12 -2 -11 -15
1 -11 9 -19 20 -19 10 0 16 4 12 9 -7 12 25 30 43 24 7 -3 12 -1 11 4 -4 21 2
34 13 27 6 -4 8 -3 4 4 -3 6 -2 13 4 17 7 4 7 13 -1 26 -6 12 -8 23 -5 27 3 3
6 1 6 -5 0 -6 6 -13 14 -16 10 -4 13 0 11 14 -2 11 5 29 16 40 11 11 17 24 14
29 -4 6 -1 10 6 10 8 0 8 4 -1 15 -11 13 -10 14 6 8 17 -6 18 -5 5 11 -8 9
-10 16 -5 15 18 -3 37 1 31 8 -4 3 1 12 11 19 16 11 16 14 -3 36 l-20 23 21
-17 c20 -18 49 -25 40 -10 -2 4 12 21 32 37 58 49 188 185 176 185 -3 0 3 12
14 28 18 26 45 85 43 96 0 3 6 21 15 41 8 19 12 35 9 35 -3 0 -1 8 4 18 26 48
30 249 7 340 -3 12 -8 32 -11 44 -2 11 -13 38 -23 59 -11 21 -14 36 -8 32 6
-4 3 3 -6 14 -10 11 -18 23 -18 26 0 4 -16 31 -35 61 -55 86 -220 246 -254
246 -6 0 -11 5 -11 10 0 6 -5 10 -11 10 -6 0 -24 9 -40 21 -16 11 -29 18 -29
15 0 -3 -24 6 -54 19 -30 13 -57 21 -60 18 -3 -4 -6 -1 -6 6 0 6 -6 11 -12 10
-7 -2 -26 0 -43 4 -16 4 -41 10 -55 13 -40 10 -200 14 -200 6z m575 -1342 c-3
-5 -12 -10 -18 -10 -7 0 -6 4 3 10 19 12 23 12 15 0z m-74 -93 c-10 -9 -11 -8
-5 6 3 10 9 15 12 12 3 -3 0 -11 -7 -18z m-60 -20 c-10 -9 -11 -8 -5 6 3 10 9
15 12 12 3 -3 0 -11 -7 -18z m26 -32 c0 -8 -4 -12 -9 -9 -4 3 -8 9 -8 15 0 5
4 9 8 9 5 0 9 -7 9 -15z m-42 -15 c3 -5 1 -10 -4 -10 -6 0 -11 5 -11 10 0 6 2
10 4 10 3 0 8 -4 11 -10z m-10 -40 c3 -6 -1 -7 -9 -4 -18 7 -21 14 -7 14 6 0
13 -4 16 -10z m28 -5 c-3 -9 -8 -14 -10 -11 -3 3 -2 9 2 15 9 16 15 13 8 -4z
m-36 -35 c-1 -10 -5 -17 -9 -14 -4 3 -4 12 -1 21 5 12 3 14 -7 8 -9 -5 -11 -4
-6 4 10 16 25 4 23 -19z"/>
<path d="M706 1549 c-20 -8 -33 -19 -29 -24 5 -4 2 -5 -4 -1 -7 4 -28 0 -46
-9 -18 -8 -44 -17 -57 -20 -13 -2 -27 -10 -31 -16 -5 -8 -8 -7 -12 2 -4 10 -6
10 -6 2 -1 -7 -7 -13 -15 -13 -8 0 -17 -6 -19 -12 -4 -9 -6 -9 -6 1 -1 11 -5
10 -17 -5 -8 -10 -13 -14 -10 -7 5 8 0 8 -18 0 -13 -7 -22 -15 -20 -19 3 -4
-3 -5 -12 -1 -13 5 -15 3 -9 -7 5 -9 4 -11 -3 -6 -13 8 -53 -11 -65 -31 -5 -7
-12 -11 -18 -8 -5 4 -9 1 -9 -5 0 -6 -4 -9 -9 -6 -5 4 -8 -2 -6 -11 2 -10 4
-28 4 -41 1 -13 5 -20 11 -17 7 4 7 -2 0 -19 -8 -21 -7 -24 8 -19 9 3 22 10
28 14 6 5 14 6 17 2 4 -3 7 -1 7 6 0 7 5 9 10 6 6 -3 10 0 10 7 0 9 3 9 10 -2
5 -8 10 -10 10 -4 0 11 35 28 53 25 4 -1 7 4 7 9 0 6 8 10 18 10 9 0 34 9 54
19 19 11 39 17 42 14 3 -4 6 -1 6 5 0 7 3 11 8 11 22 -4 42 2 37 10 -3 6 6 8
20 5 15 -2 25 0 25 7 0 6 7 9 15 5 8 -3 15 -1 15 4 0 5 9 7 20 5 11 -2 20 0
20 4 0 4 18 7 40 7 22 -1 40 1 40 4 0 3 20 6 45 6 25 0 45 -3 45 -7 0 -3 11
-5 25 -4 34 4 127 -44 176 -89 43 -41 105 -126 101 -138 -1 -5 2 -8 7 -8 5 0
12 -15 16 -32 12 -53 16 -72 19 -85 1 -7 5 -16 9 -19 4 -4 2 -13 -4 -21 -9
-10 -8 -13 0 -13 7 0 9 -5 5 -11 -3 -6 -8 -27 -10 -46 -2 -19 -7 -40 -12 -46
-5 -7 -8 -20 -7 -29 2 -10 -1 -18 -6 -18 -6 0 -8 -4 -5 -9 3 -5 -5 -20 -18
-34 -13 -14 -22 -28 -19 -31 3 -2 -5 -9 -16 -16 -12 -6 -19 -15 -16 -21 4 -5
2 -9 -3 -9 -9 0 -24 -12 -87 -68 -16 -15 -34 -25 -40 -24 -5 2 -7 1 -4 -3 8
-7 -43 -62 -53 -58 -4 2 -5 -6 -3 -17 2 -13 -1 -20 -11 -20 -8 0 -12 -4 -9
-10 3 -5 1 -10 -5 -10 -6 0 -8 -4 -5 -10 3 -6 1 -10 -4 -10 -6 0 -11 -5 -11
-11 0 -5 5 -7 10 -4 6 3 10 4 10 0 0 -3 -12 -10 -26 -15 -21 -8 -24 -13 -15
-24 9 -11 9 -16 0 -22 -8 -5 -9 -3 -4 6 5 8 4 11 -3 6 -6 -4 -8 -14 -5 -23 4
-10 2 -14 -4 -10 -6 4 -17 -1 -24 -11 -7 -9 -9 -14 -4 -9 9 7 45 -40 45 -58
-1 -5 -7 2 -15 17 -11 19 -20 25 -35 21 -11 -3 -18 -9 -15 -13 3 -5 1 -11 -5
-15 -6 -4 -8 -11 -5 -16 4 -5 2 -9 -4 -9 -6 0 -7 -7 -4 -17 5 -12 3 -14 -7 -8
-9 5 -11 4 -6 -3 4 -7 1 -12 -6 -12 -7 -1 -3 -6 10 -13 12 -7 20 -16 16 -20
-4 -3 1 -9 10 -13 9 -3 14 -9 12 -13 -3 -4 7 -8 21 -9 15 -1 24 0 21 4 -3 3 5
16 19 30 14 14 22 31 19 39 -2 7 -2 15 2 17 4 2 18 16 32 33 14 16 17 23 8 16
-27 -21 -21 -1 8 25 14 13 22 29 19 34 -3 6 1 13 9 16 9 3 13 10 10 15 -3 5 0
9 7 9 9 0 9 3 0 14 -10 12 -8 13 11 8 20 -5 21 -4 9 11 -7 9 -18 14 -24 10 -6
-3 -7 -1 -3 6 6 9 11 9 22 0 13 -11 18 -6 15 14 -1 5 3 6 8 3 5 -3 14 1 21 9
10 12 10 19 -1 33 -13 15 -12 16 3 4 12 -10 22 -11 35 -3 10 6 14 11 10 11 -4
0 -2 6 5 14 7 8 17 12 21 9 5 -3 11 4 14 15 3 14 10 19 21 15 9 -4 13 -2 8 5
-3 6 3 13 14 17 11 3 25 15 31 26 5 11 15 16 21 13 6 -4 8 -3 4 4 -3 5 -3 12
2 14 13 6 72 85 66 90 -2 3 2 11 11 18 8 7 15 23 15 36 0 13 3 24 8 24 4 0 8
10 9 23 3 25 10 62 13 62 1 0 3 29 4 65 3 72 -10 158 -26 178 -6 6 -7 12 -3
12 4 0 2 7 -5 15 -7 8 -9 15 -4 15 5 0 4 4 -2 8 -5 4 -20 23 -32 42 -30 49
-142 161 -142 143 0 -5 -4 -3 -8 3 -6 10 -69 47 -82 49 -3 0 -14 6 -25 12 -11
6 -31 13 -45 14 -14 2 -27 7 -31 11 -3 4 -21 10 -40 12 -18 3 -34 5 -34 6 0 4
-57 11 -111 13 -39 2 -74 -3 -98 -14z m-376 -203 c0 -2 -8 -10 -17 -17 -16
-13 -17 -12 -4 4 13 16 21 21 21 13z m745 -804 c-3 -3 -11 0 -18 7 -9 10 -8
11 6 5 10 -3 15 -9 12 -12z m-83 -94 c-6 -6 -12 -6 -17 3 -6 8 -4 10 5 4 9 -5
10 -1 6 16 -6 21 -6 22 5 6 7 -13 8 -22 1 -29z m-39 9 c4 3 7 4 7 0 0 -18 -21
-14 -30 5 -10 21 -10 21 3 6 8 -10 17 -15 20 -11z m-25 -34 c-2 -10 -10 -17
-16 -15 -17 3 -15 -15 3 -22 8 -3 15 -1 15 4 0 6 5 10 10 10 17 0 11 -15 -12
-29 -13 -7 -20 -10 -16 -6 4 5 0 13 -9 20 -17 13 -9 40 9 29 7 -5 9 -1 5 9 -3
10 -2 17 4 17 6 0 9 -8 7 -17z m38 8 c-4 -5 0 -12 6 -14 8 -3 6 -6 -4 -6 -18
-1 -24 10 -11 22 9 10 15 8 9 -2z m-92 -76 c3 -8 1 -15 -4 -15 -6 0 -10 6 -11
13 0 10 -2 10 -6 0 -2 -7 -9 -13 -15 -13 -6 0 -6 6 2 15 7 8 16 15 20 15 4 0
10 -7 14 -15z m65 -21 c-12 -15 -29 -10 -29 9 0 7 4 6 10 -3 9 -14 14 -7 11
13 -1 5 3 6 9 2 8 -5 8 -11 -1 -21z m-32 -20 c2 -6 -8 -16 -21 -24 -14 -7 -23
-17 -20 -21 3 -5 16 -2 30 7 22 15 24 15 18 0 -3 -9 -10 -13 -15 -10 -5 3 -9
0 -9 -6 0 -7 -7 -9 -16 -6 -12 4 -15 2 -10 -9 4 -12 2 -13 -14 -2 -18 11 -19
12 -2 19 17 6 15 9 -10 12 -15 2 -11 38 5 48 16 10 60 4 64 -8z"/>
<path d="M840 300 c-6 -12 -5 -17 6 -17 9 0 13 6 9 15 -4 12 -2 12 8 3 11 -9
17 -8 26 3 9 11 6 14 -14 14 -14 0 -30 -8 -35 -18z"/>
<path d="M760 1311 c0 -6 -3 -10 -7 -9 -13 3 -63 -25 -63 -34 0 -5 -4 -6 -10
-3 -5 3 -10 1 -10 -5 0 -6 -4 -9 -9 -6 -5 3 -12 -1 -15 -10 -3 -8 -10 -12 -16
-9 -6 3 -13 -1 -16 -9 -3 -9 -12 -16 -18 -16 -7 0 -23 -10 -36 -22 -14 -13
-29 -22 -34 -20 -4 2 -6 -4 -3 -12 3 -8 -1 -17 -9 -20 -10 -4 -13 -2 -8 7 5 6
-7 -2 -24 -20 -18 -18 -34 -36 -35 -40 -1 -4 -15 -20 -31 -35 -18 -17 -24 -28
-15 -28 8 -1 4 -6 -9 -13 -18 -10 -20 -15 -10 -25 11 -11 10 -12 -3 -7 -13 5
-16 1 -12 -22 3 -15 5 -36 6 -46 1 -10 7 -15 15 -12 7 3 22 0 32 -5 22 -12 55
14 46 36 -3 9 0 11 11 7 13 -5 15 -2 10 11 -4 9 -3 15 2 12 5 -3 17 5 27 19
10 13 21 22 25 19 4 -2 6 7 5 20 -2 15 1 23 9 20 15 -6 65 34 62 49 -1 7 6 11
15 9 13 -2 16 2 12 13 -4 9 -2 15 2 13 5 -2 20 7 34 20 13 12 28 22 32 22 5 0
6 4 3 10 -3 6 1 7 9 4 9 -3 16 -1 16 5 0 6 3 10 8 9 4 -1 20 4 36 11 16 6 36
9 43 7 8 -3 12 -2 9 3 -3 5 5 8 19 7 14 0 25 -4 25 -8 0 -4 6 -5 13 -3 6 3 32
-11 56 -30 24 -19 41 -35 37 -35 -4 0 -1 -10 6 -22 15 -29 18 -40 21 -111 1
-32 -2 -61 -7 -64 -5 -4 -6 -1 -1 7 5 8 4 11 -3 6 -6 -4 -9 -13 -6 -20 3 -7
-2 -16 -11 -20 -9 -3 -13 -10 -10 -16 3 -5 -1 -10 -10 -10 -9 0 -14 -4 -11 -9
4 -5 -1 -8 -10 -7 -8 1 -32 -12 -52 -31 -19 -18 -37 -31 -39 -29 -4 4 -63 -49
-63 -57 0 -3 -14 -19 -31 -36 -25 -25 -29 -34 -19 -46 10 -12 8 -13 -10 -10
-18 4 -20 2 -9 -11 10 -12 9 -13 -7 -7 -17 6 -18 5 -4 -12 12 -15 12 -17 1
-10 -11 6 -13 4 -7 -10 6 -16 4 -16 -10 -4 -16 13 -16 12 -6 -8 11 -19 9 -24
-10 -33 -21 -10 -22 -10 -5 3 10 9 14 18 9 21 -10 6 -22 -14 -29 -49 -2 -10
-9 -23 -16 -27 -6 -4 -13 -12 -13 -18 -1 -5 -2 -15 -3 -21 0 -5 -7 -7 -13 -3
-10 6 -10 4 -1 -6 11 -12 15 -11 28 6 8 10 15 25 15 33 0 8 8 4 20 -10 23 -28
27 -13 5 18 -11 16 -12 24 -4 29 7 4 9 3 5 -4 -3 -5 -1 -12 4 -14 6 -2 12 -17
14 -33 2 -16 9 -31 16 -33 8 -3 10 0 5 8 -6 9 -4 11 4 6 16 -10 -15 -47 -33
-40 -7 3 -13 -1 -13 -8 0 -7 -2 -17 -4 -23 -2 -5 1 -11 6 -12 6 -2 10 3 10 10
0 6 8 11 18 11 9 -1 14 2 12 7 -3 4 3 17 13 27 11 11 25 33 33 50 7 17 17 28
23 25 5 -3 6 -1 2 5 -4 7 -2 12 5 12 7 0 10 3 6 6 -3 3 4 15 15 26 11 11 17
26 14 33 -3 9 0 12 10 8 9 -3 14 0 12 8 -2 8 3 13 10 11 8 -1 11 2 8 7 -3 5 8
24 24 42 16 19 27 40 25 48 -4 10 -2 11 8 3 10 -9 17 -7 29 8 9 10 13 21 10
25 -4 3 1 3 10 0 9 -4 18 0 22 10 3 9 10 13 16 10 5 -3 10 1 10 9 0 9 3 15 8
14 4 -2 18 5 32 15 13 9 20 17 15 17 -6 0 -1 7 9 15 11 8 21 25 23 37 2 12 9
28 15 35 18 22 14 170 -5 189 -4 4 -7 16 -7 26 0 11 -4 17 -9 14 -5 -3 -12 5
-15 19 -4 14 -13 25 -20 25 -8 0 -16 7 -19 15 -7 16 -86 68 -104 68 -7 0 -13
4 -13 9 0 4 -8 8 -18 8 -10 0 -22 3 -25 7 -12 12 -127 15 -127 4z m-312 -270
c-7 -9 -13 -18 -15 -20 -1 -2 -1 5 0 16 0 11 7 20 14 20 10 0 10 -4 1 -16z
m36 -51 c-17 -33 -27 -40 -17 -12 6 17 23 42 28 42 2 0 -3 -13 -11 -30z m-64
5 c-7 -9 -15 -13 -19 -10 -3 3 1 10 9 15 21 14 24 12 10 -5z m30 -50 c0 -5 -5
-3 -10 5 -5 8 -10 20 -10 25 0 6 5 3 10 -5 5 -8 10 -19 10 -25z m-43 -6 c-16
-22 -16 -22 -14 -1 0 11 5 18 9 16 4 -3 8 0 8 7 0 7 3 10 6 6 3 -3 -1 -16 -9
-28z m29 -11 c5 -7 3 -8 -6 -3 -10 6 -12 4 -6 -11 5 -14 4 -16 -5 -7 -6 6 -8
16 -5 22 9 14 13 14 22 -1z m474 -132 c0 -3 -4 -8 -10 -11 -5 -3 -10 -1 -10 4
0 6 5 11 10 11 6 0 10 -2 10 -4z m-105 -75 c3 -5 2 -12 -3 -15 -5 -3 -9 1 -9
9 0 17 3 19 12 6z m40 -10 c3 -5 2 -12 -3 -15 -5 -3 -9 1 -9 9 0 17 3 19 12 6z
m-30 -21 c-3 -5 -14 -14 -24 -19 -13 -7 -18 -6 -18 4 0 7 6 11 13 8 6 -2 15 0
19 6 3 6 8 11 11 11 3 0 2 -4 -1 -10z m-11 -46 c3 -8 2 -12 -4 -9 -6 3 -10 10
-10 16 0 14 7 11 14 -7z m-57 -16 c-2 -12 -10 -24 -18 -26 -11 -3 -12 -2 -1 6
8 5 13 12 13 16 -2 15 -1 26 4 26 3 0 3 -10 2 -22z m24 -1 c-10 -9 -11 -8 -5
6 3 10 9 15 12 12 3 -3 0 -11 -7 -18z m7 -21 c-10 -7 -16 -15 -13 -17 2 -3 -6
-6 -17 -6 -19 -2 -18 0 7 17 34 22 49 26 23 6z m-28 -46 c5 8 9 7 13 -5 5 -11
3 -14 -5 -9 -8 5 -9 1 -4 -12 4 -12 -3 -7 -18 11 -14 17 -25 34 -26 40 0 5 7
-1 16 -14 12 -16 19 -19 24 -11z m60 16 c0 -2 -9 -6 -20 -9 -11 -3 -18 -1 -14
4 5 9 34 13 34 5z m-105 -25 c-3 -5 2 -12 10 -14 12 -4 12 -5 -1 -3 -19 1 -32
26 -14 26 6 0 9 -4 5 -9z m41 -43 c3 -5 1 -15 -6 -21 -10 -9 -12 -8 -7 6 4 9
2 17 -2 17 -5 0 -11 -5 -13 -12 -3 -8 -6 -7 -10 3 -7 17 28 24 38 7z"/>
<path d="M795 1068 c-4 -9 -13 -14 -21 -11 -8 3 -14 0 -14 -6 0 -6 -6 -11 -13
-11 -7 0 -27 -13 -44 -29 -18 -16 -34 -26 -37 -23 -3 3 -6 1 -6 -5 0 -5 -9
-20 -19 -32 -11 -12 -18 -31 -16 -42 2 -11 0 -17 -6 -14 -5 4 -7 11 -4 16 4 5
2 9 -2 9 -10 0 -46 -58 -49 -78 -3 -20 -14 -28 -14 -11 -1 8 -7 1 -15 -16 -8
-16 -22 -41 -32 -55 -14 -18 -14 -22 -3 -15 8 4 3 -3 -12 -18 -30 -28 -41 -60
-13 -37 15 12 20 4 16 -22 0 -5 3 -8 7 -8 16 0 21 13 12 30 -6 12 -5 23 5 36
12 16 16 17 27 5 11 -12 10 -13 -3 -8 -12 4 -16 -1 -16 -18 0 -17 4 -22 16
-18 13 5 13 3 -2 -8 -16 -13 -16 -16 -3 -34 12 -17 17 -18 28 -6 7 8 8 11 2 8
-7 -4 -15 0 -18 9 -3 9 -2 12 5 9 12 -8 41 14 33 26 -3 5 0 9 7 9 7 0 9 3 5 7
-3 4 4 13 16 20 18 10 20 12 6 13 -10 0 -18 5 -18 11 0 6 9 8 22 3 21 -6 21
-5 9 10 -11 13 -12 19 -2 29 10 9 11 8 6 -5 -4 -10 -4 -18 0 -18 9 0 34 31 35
43 0 5 -4 6 -8 3 -5 -3 -9 1 -9 8 0 7 6 13 13 13 7 0 11 -4 8 -9 -15 -23 13
-2 67 52 33 33 66 60 74 60 8 0 18 7 23 16 5 9 12 15 15 15 21 -3 27 0 22 9
-3 6 0 12 7 15 11 4 14 28 9 78 -1 4 -17 7 -36 5 -24 -1 -35 -7 -36 -18 0 -10
-3 -9 -9 5 -7 18 -9 18 -15 3z m-40 -78 c3 -6 -1 -7 -9 -4 -18 7 -21 14 -7 14
6 0 13 -4 16 -10z m-30 -48 c-3 -3 -11 0 -18 7 -9 10 -8 11 6 5 10 -3 15 -9
12 -12z m5 -32 c0 -5 -5 -10 -11 -10 -5 0 -7 5 -4 10 3 6 8 10 11 10 2 0 4 -4
4 -10z m-125 -29 c3 -5 2 -12 -3 -15 -5 -3 -9 1 -9 9 0 17 3 19 12 6z m75 -6
c0 -2 -6 -8 -13 -14 -10 -8 -14 -7 -14 2 0 8 6 14 14 14 7 0 13 -1 13 -2z
m-82 -60 c-3 -3 -9 2 -12 12 -6 14 -5 15 5 6 7 -7 10 -15 7 -18z m11 -30 c3
-4 -7 -4 -22 -1 -31 5 -33 -1 -12 -31 10 -15 12 -24 4 -28 -5 -4 -13 -4 -16
-1 -4 3 -1 6 6 6 7 0 9 5 6 10 -4 6 -10 8 -14 6 -4 -3 -13 0 -21 6 -12 8 -11
9 4 4 14 -5 17 -2 12 10 -3 9 -4 20 -1 24 6 9 43 5 54 -5z m-42 -81 c-3 -3
-12 -4 -19 -1 -8 3 -5 6 6 6 11 1 17 -2 13 -5z"/>
<path d="M387 883 c-2 -5 -3 -17 -3 -27 1 -23 23 -34 23 -12 0 8 -5 12 -10 9
-6 -3 -7 -1 -3 5 4 6 13 9 21 5 8 -3 15 -1 15 5 0 5 -7 13 -16 16 -20 8 -22 8
-27 -1z"/>
<path d="M440 687 c0 -3 10 -16 23 -27 20 -20 20 -21 2 -15 -18 6 -18 5 -2 -5
9 -6 15 -15 12 -20 -3 -5 -1 -11 4 -15 6 -3 8 3 6 15 -2 11 0 20 6 20 5 0 7
-13 4 -29 -3 -21 0 -31 11 -35 9 -4 19 -4 22 -1 3 3 0 5 -6 5 -20 0 -13 17 9
23 20 5 20 7 5 22 -9 9 -16 20 -16 25 0 4 -8 7 -17 6 -11 0 -17 5 -15 13 2 8
-3 11 -11 8 -8 -3 -20 0 -26 6 -6 6 -11 8 -11 4z m84 -62 c3 -8 1 -15 -4 -15
-6 0 -10 7 -10 15 0 8 2 15 4 15 2 0 6 -7 10 -15z"/>
<path d="M645 481 c-3 -5 0 -13 6 -17 8 -4 9 -3 5 4 -5 8 -1 10 9 5 13 -4 14
-8 4 -14 -7 -4 -17 -5 -21 -3 -4 3 -16 0 -25 -6 -17 -11 -17 -11 0 -6 12 4 21
-1 27 -17 8 -21 11 -20 14 6 1 6 9 11 19 11 22 -2 22 9 -1 29 -21 19 -28 21
-37 8z"/>
<path d="M1003 113 c0 -16 51 -55 60 -46 4 3 2 13 -3 23 -5 10 -6 20 -3 24 3
3 2 6 -3 7 -5 0 -18 2 -30 3 -12 1 -21 -3 -21 -11z m37 -9 c0 -8 -19 -13 -24
-6 -3 5 1 9 9 9 8 0 15 -2 15 -3z"/>
<path d="M1111 121 c-7 -5 -12 -11 -12 -15 3 -19 0 -25 -12 -20 -18 7 -19 -32
-1 -47 8 -7 14 -8 13 -3 -4 20 2 35 11 29 6 -3 7 1 4 9 -3 9 -1 16 6 16 6 0 9
4 6 9 -4 5 -1 11 6 13 7 3 8 7 2 11 -5 3 -16 2 -23 -2z"/>
</g>
</svg>
