<?xml version="1.0" encoding="UTF-8" standalone="no"?>
<!-- Created with Inkscape (http://www.inkscape.org/) -->

<svg
   version="1.1"
   id="svg2"
   width="312"
   height="312"
   viewBox="0 0 312 312"
   sodipodi:docname="lpi-seeklogo.eps"
   xmlns:inkscape="http://www.inkscape.org/namespaces/inkscape"
   xmlns:sodipodi="http://sodipodi.sourceforge.net/DTD/sodipodi-0.dtd"
   xmlns="http://www.w3.org/2000/svg"
   xmlns:svg="http://www.w3.org/2000/svg">
  <defs
     id="defs6" />
  <sodipodi:namedview
     id="namedview4"
     pagecolor="#ffffff"
     bordercolor="#000000"
     borderopacity="0.25"
     inkscape:showpageshadow="2"
     inkscape:pageopacity="0.0"
     inkscape:pagecheckerboard="0"
     inkscape:deskcolor="#d1d1d1" />
  <g
     id="g8"
     inkscape:groupmode="layer"
     inkscape:label="ink_ext_XXXXXX"
     transform="matrix(1.3333333,0,0,-1.3333333,0,312)">
    <g
       id="g10"
       transform="scale(0.1)">
      <path
         d="M 2301.84,1168.36 C 2301.84,542.516 1794.48,35.1641 1168.64,35.1641 542.805,35.1641 35.4531,542.516 35.4531,1168.36 c 0,625.84 507.3519,1133.19 1133.1869,1133.19 625.84,0 1133.2,-507.35 1133.2,-1133.19"
         style="fill:#ffcd04;fill-opacity:1;fill-rule:evenodd;stroke:none"
         id="path12" />
      <path
         d="M 2301.84,1168.36 C 2301.84,542.516 1794.48,35.1641 1168.64,35.1641 542.805,35.1641 35.4531,542.516 35.4531,1168.36 c 0,625.84 507.3519,1133.19 1133.1869,1133.19 625.84,0 1133.2,-507.35 1133.2,-1133.19 z"
         style="fill:none;stroke:#ffcd04;stroke-width:4.72425;stroke-linecap:butt;stroke-linejoin:miter;stroke-miterlimit:10;stroke-dasharray:none;stroke-opacity:1"
         id="path14" />
      <path
         d="m 2018.38,1168.36 c 0,-469.297 -380.44,-849.739 -849.74,-849.739 -469.288,0 -849.73,380.442 -849.73,849.739 0,469.29 380.442,849.73 849.73,849.73 469.3,0 849.74,-380.44 849.74,-849.73"
         style="fill:#ffffff;fill-opacity:1;fill-rule:evenodd;stroke:none"
         id="path16" />
      <path
         d="m 2018.38,1168.36 c 0,-469.297 -380.44,-849.739 -849.74,-849.739 -469.288,0 -849.73,380.442 -849.73,849.739 0,469.29 380.442,849.73 849.73,849.73 469.3,0 849.74,-380.44 849.74,-849.73 z"
         style="fill:none;stroke:#ffffff;stroke-width:4.72425;stroke-linecap:butt;stroke-linejoin:miter;stroke-miterlimit:10;stroke-dasharray:none;stroke-opacity:1"
         id="path18" />
      <path
         d="m 1678.23,1593.54 c 0,-77.93 -63.17,-141.1 -141.09,-141.1 -77.93,0 -141.1,63.17 -141.1,141.1 0,77.92 63.17,141.1 141.1,141.1 77.92,0 141.09,-63.18 141.09,-141.1"
         style="fill:#ffcd04;fill-opacity:1;fill-rule:evenodd;stroke:none"
         id="path20" />
      <path
         d="m 1678.23,1593.54 c 0,-77.93 -63.17,-141.1 -141.09,-141.1 -77.93,0 -141.1,63.17 -141.1,141.1 0,77.92 63.17,141.1 141.1,141.1 77.92,0 141.09,-63.18 141.09,-141.1 z"
         style="fill:none;stroke:#ffcd04;stroke-width:4.72425;stroke-linecap:butt;stroke-linejoin:miter;stroke-miterlimit:10;stroke-dasharray:none;stroke-opacity:1"
         id="path22" />
      <path
         d="M 1310.37,1876.99 H 1026.92 L 686.773,601.445 h 963.747 l 75.59,283.453 h -677.15"
         style="fill:#ffcd04;fill-opacity:1;fill-rule:evenodd;stroke:none"
         id="path24" />
      <path
         d="M 1310.37,1876.99 H 1026.92 L 686.773,601.445 h 963.747 l 75.59,283.453 h -677.15 z"
         style="fill:none;stroke:#ffcd04;stroke-width:4.72425;stroke-linecap:butt;stroke-linejoin:miter;stroke-miterlimit:10;stroke-dasharray:none;stroke-opacity:1"
         id="path26" />
      <g
         id="g28"
         transform="scale(10)">
        <text
           xml:space="preserve"
           transform="matrix(1,0,0,-1,190.626,201.809)"
           style="font-variant:normal;font-weight:normal;font-size:20.7867px;font-family:Helvetica;-inkscape-font-specification:Helvetica;writing-mode:lr-tb;fill:#ffcd04;fill-opacity:1;fill-rule:nonzero;stroke:none"
           id="text32"><tspan
             x="0 12.700674"
             y="0"
             sodipodi:role="line"
             id="tspan30">TM</tspan></text>
      </g>
    </g>
  </g>
</svg>
