<svg xmlns="http://www.w3.org/2000/svg"  viewBox="0 0 192.756 192.756"><g fill-rule="evenodd" clip-rule="evenodd"><path d="M96.378 22.659c23.483 0 42.636 19.152 42.636 42.635s-19.152 42.634-42.636 42.634c-23.482 0-42.634-19.152-42.634-42.634s19.152-42.635 42.634-42.635zm0-12.908c30.593 0 55.542 24.95 55.542 55.542s-24.949 55.542-55.542 55.542c-30.592 0-55.542-24.95-55.542-55.542S65.786 9.751 96.378 9.751z" fill="#ffcd04"/><path d="M110.033 35.532c2.93 0 5.318 2.389 5.318 5.318s-2.389 5.318-5.318 5.318c-2.928 0-5.316-2.39-5.316-5.318s2.388-5.318 5.316-5.318zM120.059 95.511H72.198L85.891 28.82h12.728L87.11 84.875h35.134l-2.185 10.636z" fill="#ffcd04"/></g></svg>