<svg width="49" height="49" viewBox="0 0 49 49" fill="none" xmlns="http://www.w3.org/2000/svg">
<path fill-rule="evenodd" clip-rule="evenodd" d="M23.4816 37.2886C26.629 37.2886 29.2514 35.8205 31.1925 33.6176L31.716 36.6074H37.276L37.3444 2.02376L39.4009 1.65393C43.4246 0.930475 46.7167 3.72675 46.7151 8.45603V40.1433C46.7151 44.4239 43.4279 47.4104 39.4107 46.6479L6.42274 40.3791C3.71588 39.8653 1.5 37.2609 1.5 33.9737V13.9413C1.5 10.7337 3.71914 8.07073 6.43087 7.58301L30.508 3.25316L30.4577 12.4798C28.6222 10.7484 26.2616 9.69975 23.4816 9.69975C16.3495 9.69975 11.1569 15.5215 11.1569 23.4942C11.1569 31.5188 16.3479 37.2886 23.4816 37.2886ZM24.2685 31.205C20.5439 31.205 18.0793 28.1633 18.0793 23.4958C18.0793 18.8283 20.5455 15.7849 24.2685 15.7849C28.3068 15.7849 30.4577 18.8283 30.4577 23.4958C30.4577 28.1633 28.3068 31.205 24.2685 31.205Z" fill="#00E88F"/>
</svg>
